{
	"asset":{
		"generator":"Khronos glTF Blender I/O v4.3.47",
		"version":"2.0"
	},
	"scene":0,
	"scenes":[
		{
			"extras":{
				"scatter5":{
					"operators":{
						"create_operators":{
							"f_sec_verts":199000,
							"f_sec_count_allow":1,
							"f_sec_verts_allow":1
						},
						"add_psy_density":{
							"f_distribution_density":0.20000000298023224,
							"selection_mode":1
						},
						"load_biome":{
							"progress_context":"",
							"progress_bar":0.0,
							"progress_label":"",
							"f_mask_assign_curve":{},
							"f_mask_paint_curve":{},
							"f_display_biome_allow":0
						}
					},
					"emitter":{
						"name":"S\u00e2n Qu\u1ed1c Ph\u00f2ng",
						"type":"Object"
					}
				}
			},
			"name":"Scene",
			"nodes":[
				0,
				1,
				2,
				3,
				4,
				5,
				6,
				7,
				8,
				9,
				10,
				11
			]
		}
	],
	"nodes":[
		{
			"extras":{
				"scatter5":{
					"estimated_square_area":4.0,
					"uuid_private":-887438825,
					"uuid_initialized":1,
					"particle_systems":[],
					"particle_groups":[],
					"particle_interface_items":[],
					"particle_interface_idx":0
				}
			},
			"mesh":0,
			"name":"S\u00e2n Qu\u1ed1c Ph\u00f2ng",
			"scale":[
				18,
				1,
				36
			]
		},
		{
			"extras":{
				"scatter5":{}
			},
			"mesh":1,
			"name":"1",
			"rotation":[
				0.5,
				-0.5,
				-0.5,
				0.5000000596046448
			],
			"scale":[
				0.04696517065167427,
				0.05376427620649338,
				0.05376427620649338
			],
			"translation":[
				5.170000076293945,
				0,
				-12.770000457763672
			]
		},
		{
			"extras":{
				"scatter5":{}
			},
			"mesh":2,
			"name":"1.001",
			"rotation":[
				0.5,
				-0.5,
				-0.5,
				0.5000000596046448
			],
			"scale":[
				0.04696517065167427,
				0.05376427620649338,
				0.05376427620649338
			],
			"translation":[
				5.470000267028809,
				1.2999999523162842,
				-22.3700008392334
			]
		},
		{
			"extras":{
				"scatter5":{}
			},
			"mesh":3,
			"name":"1.002",
			"rotation":[
				0.5,
				-0.5,
				-0.5,
				0.5000000596046448
			],
			"scale":[
				0.04696517065167427,
				0.05376427620649338,
				0.05376427620649338
			],
			"translation":[
				0,
				1.2999999523162842,
				-17.690000534057617
			]
		},
		{
			"extras":{
				"scatter5":{}
			},
			"mesh":4,
			"name":"S\u00e0n ",
			"scale":[
				6.5,
				0.6499999761581421,
				2
			],
			"translation":[
				0,
				0.6499999761581421,
				-23.089998245239258
			]
		},
		{
			"extras":{
				"scatter5":{}
			},
			"mesh":5,
			"name":"LED ",
			"scale":[
				2.5,
				1.5,
				0.05000000074505806
			],
			"translation":[
				0,
				2.799999952316284,
				-24.889999389648438
			]
		},
		{
			"extras":{
				"scatter5":{}
			},
			"mesh":6,
			"name":"Catwalk1",
			"rotation":[
				0,
				0.3826834559440613,
				0,
				0.9238795638084412
			],
			"scale":[
				5.8520002365112305,
				0.6499999761581421,
				1
			],
			"translation":[
				0,
				0.6499999761581421,
				-17.65999984741211
			]
		},
		{
			"extras":{
				"scatter5":{}
			},
			"mesh":7,
			"name":"Catwalk2",
			"rotation":[
				0,
				-0.3826834559440613,
				0,
				0.9238795638084412
			],
			"scale":[
				5.8520002365112305,
				0.6499999761581421,
				1
			],
			"translation":[
				0,
				0.6499999761581421,
				-17.65999984741211
			]
		},
		{
			"extras":{
				"scatter5":{
					"estimated_square_area":2.2934255599975586
				}
			},
			"mesh":8,
			"name":"C\u00e1nh hoa sen",
			"rotation":[
				0,
				0,
				-0.11320322006940842,
				0.993571937084198
			],
			"translation":[
				-2.299999952316284,
				1.2999999523162842,
				-24.670000076293945
			]
		},
		{
			"extras":{
				"scatter5":{
					"estimated_square_area":2.2934255599975586
				}
			},
			"mesh":9,
			"name":"C\u00e1nh hoa sen th\u1ea5p ",
			"rotation":[
				0,
				0,
				-0.30070579051971436,
				0.9537169933319092
			],
			"scale":[
				0.800000011920929,
				0.800000011920929,
				1
			],
			"translation":[
				-2.299999952316284,
				1.2999999523162842,
				-24.5
			]
		},
		{
			"extras":{
				"scatter5":{
					"estimated_square_area":2.2934255599975586
				}
			},
			"mesh":10,
			"name":"C\u00e1nh hoa sen.001",
			"rotation":[
				0,
				0,
				-0.6225146651268005,
				0.7826082706451416
			],
			"translation":[
				2.299999952316284,
				1.2999999523162842,
				-24.670000076293945
			]
		},
		{
			"extras":{
				"scatter5":{
					"estimated_square_area":2.2934255599975586
				}
			},
			"mesh":11,
			"name":"C\u00e1nh hoa sen th\u1ea5p",
			"rotation":[
				0,
				0,
				-0.4617486596107483,
				0.887010931968689
			],
			"scale":[
				0.800000011920929,
				0.800000011920929,
				1
			],
			"translation":[
				2.299999952316284,
				1.2999999523162842,
				-24.5
			]
		}
	],
	"materials":[
		{
			"doubleSided":true,
			"name":"Material.007",
			"pbrMetallicRoughness":{
				"baseColorFactor":[
					0.19806784391403198,
					0.45078638195991516,
					0.1412634402513504,
					1
				],
				"metallicFactor":0,
				"roughnessFactor":0.5
			}
		},
		{
			"doubleSided":true,
			"name":"Material",
			"pbrMetallicRoughness":{
				"baseColorFactor":[
					0.6795389652252197,
					0.019382284954190254,
					0.039546262472867966,
					1
				],
				"metallicFactor":0,
				"roughnessFactor":0.5
			}
		},
		{
			"doubleSided":true,
			"name":"Material.004",
			"pbrMetallicRoughness":{
				"baseColorFactor":[
					0.6795389652252197,
					0.019382284954190254,
					0.039546262472867966,
					1
				],
				"metallicFactor":0,
				"roughnessFactor":0.5
			}
		},
		{
			"doubleSided":true,
			"name":"Material.005",
			"pbrMetallicRoughness":{
				"baseColorFactor":[
					0.6795389652252197,
					0.019382284954190254,
					0.039546262472867966,
					1
				],
				"metallicFactor":0,
				"roughnessFactor":0.5
			}
		},
		{
			"doubleSided":true,
			"name":"Material.003",
			"pbrMetallicRoughness":{
				"baseColorFactor":[
					0.3964119553565979,
					0.3964119553565979,
					0.3964119553565979,
					1
				],
				"metallicFactor":0,
				"roughnessFactor":0.5
			}
		},
		{
			"doubleSided":true,
			"name":"Material.002",
			"pbrMetallicRoughness":{
				"baseColorFactor":[
					0,
					0,
					0,
					1
				],
				"metallicFactor":0,
				"roughnessFactor":0.5
			}
		},
		{
			"doubleSided":true,
			"name":"H\u1ed3ng Sen",
			"pbrMetallicRoughness":{
				"baseColorFactor":[
					0.9046557545661926,
					0.5209958553314209,
					0.5711252093315125,
					1
				],
				"metallicFactor":0,
				"roughnessFactor":0.5
			}
		}
	],
	"meshes":[
		{
			"name":"B\u1ec1 m\u1eb7t",
			"primitives":[
				{
					"attributes":{
						"POSITION":0,
						"NORMAL":1,
						"TEXCOORD_0":2
					},
					"indices":3,
					"material":0
				}
			]
		},
		{
			"name":"Plane.005",
			"primitives":[
				{
					"attributes":{
						"POSITION":4,
						"NORMAL":5
					},
					"indices":6,
					"material":1
				}
			]
		},
		{
			"name":"Plane.002",
			"primitives":[
				{
					"attributes":{
						"POSITION":7,
						"NORMAL":8
					},
					"indices":6,
					"material":2
				}
			]
		},
		{
			"name":"Plane.003",
			"primitives":[
				{
					"attributes":{
						"POSITION":9,
						"NORMAL":10
					},
					"indices":6,
					"material":3
				}
			]
		},
		{
			"name":"Cube",
			"primitives":[
				{
					"attributes":{
						"POSITION":11,
						"NORMAL":12,
						"TEXCOORD_0":13
					},
					"indices":14,
					"material":4
				}
			]
		},
		{
			"name":"Cube.004",
			"primitives":[
				{
					"attributes":{
						"POSITION":15,
						"NORMAL":16,
						"TEXCOORD_0":17
					},
					"indices":14,
					"material":5
				}
			]
		},
		{
			"name":"Cube.002",
			"primitives":[
				{
					"attributes":{
						"POSITION":18,
						"NORMAL":19,
						"TEXCOORD_0":20
					},
					"indices":14,
					"material":4
				}
			]
		},
		{
			"name":"Cube.003",
			"primitives":[
				{
					"attributes":{
						"POSITION":21,
						"NORMAL":22,
						"TEXCOORD_0":23
					},
					"indices":14,
					"material":4
				}
			]
		},
		{
			"name":"Cube.006",
			"primitives":[
				{
					"attributes":{
						"POSITION":24,
						"NORMAL":25,
						"TEXCOORD_0":26
					},
					"indices":27,
					"material":6
				}
			]
		},
		{
			"name":"Cube.005",
			"primitives":[
				{
					"attributes":{
						"POSITION":28,
						"NORMAL":29,
						"TEXCOORD_0":30
					},
					"indices":27,
					"material":6
				}
			]
		},
		{
			"name":"Cube.007",
			"primitives":[
				{
					"attributes":{
						"POSITION":31,
						"NORMAL":32,
						"TEXCOORD_0":33
					},
					"indices":27,
					"material":6
				}
			]
		},
		{
			"name":"Cube.008",
			"primitives":[
				{
					"attributes":{
						"POSITION":34,
						"NORMAL":35,
						"TEXCOORD_0":36
					},
					"indices":27,
					"material":6
				}
			]
		}
	],
	"accessors":[
		{
			"bufferView":0,
			"componentType":5126,
			"count":4,
			"max":[
				1,
				0,
				1
			],
			"min":[
				-1,
				0,
				-1
			],
			"type":"VEC3"
		},
		{
			"bufferView":1,
			"componentType":5126,
			"count":4,
			"type":"VEC3"
		},
		{
			"bufferView":2,
			"componentType":5126,
			"count":4,
			"type":"VEC2"
		},
		{
			"bufferView":3,
			"componentType":5123,
			"count":6,
			"type":"SCALAR"
		},
		{
			"bufferView":4,
			"componentType":5126,
			"count":7070,
			"max":[
				-0.06589633226394653,
				3.412574291229248,
				16.24725341796875
			],
			"min":[
				-37.32754898071289,
				-2.482013702392578,
				-16.24725341796875
			],
			"type":"VEC3"
		},
		{
			"bufferView":5,
			"componentType":5126,
			"count":7070,
			"type":"VEC3"
		},
		{
			"bufferView":6,
			"componentType":5123,
			"count":10800,
			"type":"SCALAR"
		},
		{
			"bufferView":7,
			"componentType":5126,
			"count":7070,
			"max":[
				-0.06589633226394653,
				3.412574291229248,
				16.24725341796875
			],
			"min":[
				-37.32754898071289,
				-2.482013702392578,
				-16.24725341796875
			],
			"type":"VEC3"
		},
		{
			"bufferView":8,
			"componentType":5126,
			"count":7070,
			"type":"VEC3"
		},
		{
			"bufferView":9,
			"componentType":5126,
			"count":7070,
			"max":[
				-0.06589633226394653,
				3.412574291229248,
				16.24725341796875
			],
			"min":[
				-37.32754898071289,
				-2.482013702392578,
				-16.24725341796875
			],
			"type":"VEC3"
		},
		{
			"bufferView":10,
			"componentType":5126,
			"count":7070,
			"type":"VEC3"
		},
		{
			"bufferView":11,
			"componentType":5126,
			"count":24,
			"max":[
				1,
				1,
				1
			],
			"min":[
				-1,
				-1,
				-1
			],
			"type":"VEC3"
		},
		{
			"bufferView":12,
			"componentType":5126,
			"count":24,
			"type":"VEC3"
		},
		{
			"bufferView":13,
			"componentType":5126,
			"count":24,
			"type":"VEC2"
		},
		{
			"bufferView":14,
			"componentType":5123,
			"count":36,
			"type":"SCALAR"
		},
		{
			"bufferView":15,
			"componentType":5126,
			"count":24,
			"max":[
				1,
				1,
				1
			],
			"min":[
				-1,
				-1,
				-1
			],
			"type":"VEC3"
		},
		{
			"bufferView":16,
			"componentType":5126,
			"count":24,
			"type":"VEC3"
		},
		{
			"bufferView":17,
			"componentType":5126,
			"count":24,
			"type":"VEC2"
		},
		{
			"bufferView":18,
			"componentType":5126,
			"count":24,
			"max":[
				1,
				1,
				1
			],
			"min":[
				-1,
				-1,
				-1
			],
			"type":"VEC3"
		},
		{
			"bufferView":19,
			"componentType":5126,
			"count":24,
			"type":"VEC3"
		},
		{
			"bufferView":20,
			"componentType":5126,
			"count":24,
			"type":"VEC2"
		},
		{
			"bufferView":21,
			"componentType":5126,
			"count":24,
			"max":[
				1,
				1,
				1
			],
			"min":[
				-1,
				-1,
				-1
			],
			"type":"VEC3"
		},
		{
			"bufferView":22,
			"componentType":5126,
			"count":24,
			"type":"VEC3"
		},
		{
			"bufferView":23,
			"componentType":5126,
			"count":24,
			"type":"VEC2"
		},
		{
			"bufferView":24,
			"componentType":5126,
			"count":144,
			"max":[
				0,
				2,
				0
			],
			"min":[
				-2,
				0,
				-0.07000000029802322
			],
			"type":"VEC3"
		},
		{
			"bufferView":25,
			"componentType":5126,
			"count":144,
			"type":"VEC3"
		},
		{
			"bufferView":26,
			"componentType":5126,
			"count":144,
			"type":"VEC2"
		},
		{
			"bufferView":27,
			"componentType":5123,
			"count":276,
			"type":"SCALAR"
		},
		{
			"bufferView":28,
			"componentType":5126,
			"count":144,
			"max":[
				0,
				2,
				0
			],
			"min":[
				-2,
				0,
				-0.07000000029802322
			],
			"type":"VEC3"
		},
		{
			"bufferView":29,
			"componentType":5126,
			"count":144,
			"type":"VEC3"
		},
		{
			"bufferView":30,
			"componentType":5126,
			"count":144,
			"type":"VEC2"
		},
		{
			"bufferView":31,
			"componentType":5126,
			"count":144,
			"max":[
				0,
				2,
				0
			],
			"min":[
				-2,
				0,
				-0.07000000029802322
			],
			"type":"VEC3"
		},
		{
			"bufferView":32,
			"componentType":5126,
			"count":144,
			"type":"VEC3"
		},
		{
			"bufferView":33,
			"componentType":5126,
			"count":144,
			"type":"VEC2"
		},
		{
			"bufferView":34,
			"componentType":5126,
			"count":144,
			"max":[
				0,
				2,
				0
			],
			"min":[
				-2,
				0,
				-0.07000000029802322
			],
			"type":"VEC3"
		},
		{
			"bufferView":35,
			"componentType":5126,
			"count":144,
			"type":"VEC3"
		},
		{
			"bufferView":36,
			"componentType":5126,
			"count":144,
			"type":"VEC2"
		}
	],
	"bufferViews":[
		{
			"buffer":0,
			"byteLength":48,
			"byteOffset":0,
			"target":34962
		},
		{
			"buffer":0,
			"byteLength":48,
			"byteOffset":48,
			"target":34962
		},
		{
			"buffer":0,
			"byteLength":32,
			"byteOffset":96,
			"target":34962
		},
		{
			"buffer":0,
			"byteLength":12,
			"byteOffset":128,
			"target":34963
		},
		{
			"buffer":0,
			"byteLength":84840,
			"byteOffset":140,
			"target":34962
		},
		{
			"buffer":0,
			"byteLength":84840,
			"byteOffset":84980,
			"target":34962
		},
		{
			"buffer":0,
			"byteLength":21600,
			"byteOffset":169820,
			"target":34963
		},
		{
			"buffer":0,
			"byteLength":84840,
			"byteOffset":191420,
			"target":34962
		},
		{
			"buffer":0,
			"byteLength":84840,
			"byteOffset":276260,
			"target":34962
		},
		{
			"buffer":0,
			"byteLength":84840,
			"byteOffset":361100,
			"target":34962
		},
		{
			"buffer":0,
			"byteLength":84840,
			"byteOffset":445940,
			"target":34962
		},
		{
			"buffer":0,
			"byteLength":288,
			"byteOffset":530780,
			"target":34962
		},
		{
			"buffer":0,
			"byteLength":288,
			"byteOffset":531068,
			"target":34962
		},
		{
			"buffer":0,
			"byteLength":192,
			"byteOffset":531356,
			"target":34962
		},
		{
			"buffer":0,
			"byteLength":72,
			"byteOffset":531548,
			"target":34963
		},
		{
			"buffer":0,
			"byteLength":288,
			"byteOffset":531620,
			"target":34962
		},
		{
			"buffer":0,
			"byteLength":288,
			"byteOffset":531908,
			"target":34962
		},
		{
			"buffer":0,
			"byteLength":192,
			"byteOffset":532196,
			"target":34962
		},
		{
			"buffer":0,
			"byteLength":288,
			"byteOffset":532388,
			"target":34962
		},
		{
			"buffer":0,
			"byteLength":288,
			"byteOffset":532676,
			"target":34962
		},
		{
			"buffer":0,
			"byteLength":192,
			"byteOffset":532964,
			"target":34962
		},
		{
			"buffer":0,
			"byteLength":288,
			"byteOffset":533156,
			"target":34962
		},
		{
			"buffer":0,
			"byteLength":288,
			"byteOffset":533444,
			"target":34962
		},
		{
			"buffer":0,
			"byteLength":192,
			"byteOffset":533732,
			"target":34962
		},
		{
			"buffer":0,
			"byteLength":1728,
			"byteOffset":533924,
			"target":34962
		},
		{
			"buffer":0,
			"byteLength":1728,
			"byteOffset":535652,
			"target":34962
		},
		{
			"buffer":0,
			"byteLength":1152,
			"byteOffset":537380,
			"target":34962
		},
		{
			"buffer":0,
			"byteLength":552,
			"byteOffset":538532,
			"target":34963
		},
		{
			"buffer":0,
			"byteLength":1728,
			"byteOffset":539084,
			"target":34962
		},
		{
			"buffer":0,
			"byteLength":1728,
			"byteOffset":540812,
			"target":34962
		},
		{
			"buffer":0,
			"byteLength":1152,
			"byteOffset":542540,
			"target":34962
		},
		{
			"buffer":0,
			"byteLength":1728,
			"byteOffset":543692,
			"target":34962
		},
		{
			"buffer":0,
			"byteLength":1728,
			"byteOffset":545420,
			"target":34962
		},
		{
			"buffer":0,
			"byteLength":1152,
			"byteOffset":547148,
			"target":34962
		},
		{
			"buffer":0,
			"byteLength":1728,
			"byteOffset":548300,
			"target":34962
		},
		{
			"buffer":0,
			"byteLength":1728,
			"byteOffset":550028,
			"target":34962
		},
		{
			"buffer":0,
			"byteLength":1152,
			"byteOffset":551756,
			"target":34962
		}
	],
	"buffers":[
		{
			"byteLength":552908,
			"uri":"scene.bin"
		}
	]
}
