{
	"asset":{
		"generator":"Khronos glTF Blender I/O v4.3.47",
		"version":"2.0"
	},
	"scene":0,
	"scenes":[
		{
			"extras":{
				"scatter5":{
					"operators":{
						"create_operators":{
							"f_sec_verts":199000,
							"f_sec_count_allow":0,
							"f_sec_verts_allow":0
						},
						"add_psy_density":{
							"f_distribution_density":0.20000000298023224,
							"selection_mode":1,
							"f_density_scale":2
						},
						"load_biome":{
							"progress_context":"",
							"progress_bar":0.0,
							"progress_label":"",
							"f_mask_assign_curve":{},
							"f_mask_paint_curve":{},
							"f_display_biome_allow":0
						}
					},
					"emitter":{
						"name":"S\u00e2n Qu\u1ed1c Ph\u00f2ng",
						"type":"Object"
					}
				}
			},
			"name":"Scene",
			"nodes":[
				0,
				1,
				2,
				3,
				4,
				5,
				6,
				7,
				8,
				9,
				10,
				11
			]
		}
	],
	"nodes":[
		{
			"extras":{
				"scatter5":{
					"estimated_square_area":648.0,
					"uuid_private":-887438825,
					"uuid_initialized":1,
					"particle_systems":[],
					"particle_groups":[],
					"particle_interface_items":[],
					"particle_interface_idx":0
				}
			},
			"mesh":0,
			"name":"S\u00e2n Qu\u1ed1c Ph\u00f2ng",
			"scale":[
				2,
				1,
				2
			],
			"translation":[
				-18,
				0,
				36
			]
		},
		{
			"extras":{
				"scatter5":{}
			},
			"mesh":1,
			"name":"1.001",
			"rotation":[
				0.5,
				-0.5,
				-0.5,
				0.5000000596046448
			],
			"scale":[
				0.04696517065167427,
				0.05376427620649338,
				0.05376427620649338
			],
			"translation":[
				3.9600002765655518,
				0,
				-24.09000015258789
			]
		},
		{
			"extras":{
				"scatter5":{}
			},
			"mesh":2,
			"name":"1.002",
			"rotation":[
				0.5,
				-0.5,
				-0.5,
				0.5000000596046448
			],
			"scale":[
				0.04696517065167427,
				0.05376427620649338,
				0.05376427620649338
			],
			"translation":[
				0,
				1,
				-29.5
			]
		},
		{
			"extras":{
				"scatter5":{
					"estimated_square_area":24.0
				}
			},
			"mesh":3,
			"name":"Catwalk1",
			"rotation":[
				0,
				-0.8506506085395813,
				0,
				0.5257314443588257
			],
			"scale":[
				4.4720001220703125,
				0.5,
				0.6499999165534973
			],
			"translation":[
				2.4186859130859375,
				0.5,
				-24.290807723999023
			]
		},
		{
			"extras":{
				"scatter5":{}
			},
			"mesh":4,
			"name":"Catwalk2",
			"rotation":[
				0,
				0.8506508469581604,
				0,
				0.5257312059402466
			],
			"scale":[
				4.472136497497559,
				0.5,
				0.6499999761581421
			],
			"translation":[
				-2.418626308441162,
				0.5000002384185791,
				-24.290695190429688
			]
		},
		{
			"extras":{
				"scatter5":{}
			},
			"mesh":5,
			"name":"Cube",
			"scale":[
				5,
				0.5,
				2
			],
			"translation":[
				0,
				0.5,
				-30
			]
		},
		{
			"extras":{
				"scatter5":{}
			},
			"mesh":6,
			"name":"Cube.001",
			"scale":[
				1,
				0.5,
				0.2800000309944153
			],
			"translation":[
				-1.0000007152557373,
				1,
				-19.999998092651367
			]
		},
		{
			"extras":{
				"scatter5":{
					"estimated_square_area":14.40000057220459
				}
			},
			"mesh":7,
			"name":"Cube.002",
			"scale":[
				1,
				0.5,
				0.6499999761581421
			],
			"translation":[
				0,
				0.5,
				-19.349998474121094
			]
		},
		{
			"extras":{
				"scatter5":{}
			},
			"mesh":8,
			"name":"Cube.003",
			"scale":[
				0.75,
				2,
				0.02500000037252903
			],
			"translation":[
				4.25,
				3,
				-32
			]
		},
		{
			"extras":{
				"scatter5":{}
			},
			"mesh":9,
			"name":"Cube.004",
			"scale":[
				0.5,
				0.5,
				0.02500000037252903
			],
			"translation":[
				0,
				5.5,
				-32
			]
		},
		{
			"extras":{
				"scatter5":{}
			},
			"mesh":10,
			"name":"Cube.005",
			"scale":[
				0.75,
				2,
				0.02500000037252903
			],
			"translation":[
				-4.25,
				3,
				-32
			]
		},
		{
			"extras":{
				"scatter5":{}
			},
			"mesh":11,
			"name":"Cube.006",
			"scale":[
				2.5,
				2,
				0.02500000037252903
			],
			"translation":[
				0,
				3,
				-32
			]
		}
	],
	"materials":[
		{
			"doubleSided":true,
			"name":"Material.007",
			"pbrMetallicRoughness":{
				"baseColorFactor":[
					0.19806784391403198,
					0.45078638195991516,
					0.1412634402513504,
					1
				],
				"metallicFactor":0,
				"roughnessFactor":0.5
			}
		},
		{
			"doubleSided":true,
			"name":"Material.004",
			"pbrMetallicRoughness":{
				"baseColorFactor":[
					0.6795389652252197,
					0.019382284954190254,
					0.039546262472867966,
					1
				],
				"metallicFactor":0,
				"roughnessFactor":0.5
			}
		},
		{
			"doubleSided":true,
			"name":"Material.005",
			"pbrMetallicRoughness":{
				"baseColorFactor":[
					0.6795389652252197,
					0.019382284954190254,
					0.039546262472867966,
					1
				],
				"metallicFactor":0,
				"roughnessFactor":0.5
			}
		},
		{
			"doubleSided":true,
			"name":"Material.003",
			"pbrMetallicRoughness":{
				"baseColorFactor":[
					0.3964119553565979,
					0.3964119553565979,
					0.3964119553565979,
					1
				],
				"metallicFactor":0,
				"roughnessFactor":0.5
			}
		},
		{
			"doubleSided":true,
			"name":"Material.001",
			"pbrMetallicRoughness":{
				"baseColorFactor":[
					0,
					0,
					0,
					1
				],
				"metallicFactor":0,
				"roughnessFactor":0.5
			}
		}
	],
	"meshes":[
		{
			"name":"B\u1ec1 m\u1eb7t",
			"primitives":[
				{
					"attributes":{
						"POSITION":0,
						"NORMAL":1,
						"TEXCOORD_0":2
					},
					"indices":3,
					"material":0
				}
			]
		},
		{
			"name":"Plane.002",
			"primitives":[
				{
					"attributes":{
						"POSITION":4,
						"NORMAL":5
					},
					"indices":6,
					"material":1
				}
			]
		},
		{
			"name":"Plane.003",
			"primitives":[
				{
					"attributes":{
						"POSITION":7,
						"NORMAL":8
					},
					"indices":6,
					"material":2
				}
			]
		},
		{
			"name":"Cube.002",
			"primitives":[
				{
					"attributes":{
						"POSITION":9,
						"NORMAL":10,
						"TEXCOORD_0":11
					},
					"indices":12,
					"material":3
				}
			]
		},
		{
			"name":"Cube.003",
			"primitives":[
				{
					"attributes":{
						"POSITION":13,
						"NORMAL":14,
						"TEXCOORD_0":15
					},
					"indices":12,
					"material":3
				}
			]
		},
		{
			"name":"Cube.009",
			"primitives":[
				{
					"attributes":{
						"POSITION":16,
						"NORMAL":17,
						"TEXCOORD_0":18
					},
					"indices":12,
					"material":3
				}
			]
		},
		{
			"name":"Cube.014",
			"primitives":[
				{
					"attributes":{
						"POSITION":19,
						"NORMAL":20,
						"TEXCOORD_0":21
					},
					"indices":12,
					"material":3
				}
			]
		},
		{
			"name":"Cube",
			"primitives":[
				{
					"attributes":{
						"POSITION":22,
						"NORMAL":23,
						"TEXCOORD_0":24
					},
					"indices":25,
					"material":3
				}
			]
		},
		{
			"name":"Cube.001",
			"primitives":[
				{
					"attributes":{
						"POSITION":26,
						"NORMAL":27,
						"TEXCOORD_0":28
					},
					"indices":12,
					"material":4
				}
			]
		},
		{
			"name":"Cube.004",
			"primitives":[
				{
					"attributes":{
						"POSITION":29,
						"NORMAL":30,
						"TEXCOORD_0":31
					},
					"indices":12,
					"material":4
				}
			]
		},
		{
			"name":"Cube.005",
			"primitives":[
				{
					"attributes":{
						"POSITION":32,
						"NORMAL":33,
						"TEXCOORD_0":34
					},
					"indices":12,
					"material":4
				}
			]
		},
		{
			"name":"Cube.006",
			"primitives":[
				{
					"attributes":{
						"POSITION":35,
						"NORMAL":36,
						"TEXCOORD_0":37
					},
					"indices":12,
					"material":4
				}
			]
		}
	],
	"accessors":[
		{
			"bufferView":0,
			"componentType":5126,
			"count":648,
			"max":[
				18,
				0,
				0
			],
			"min":[
				0,
				0,
				-36
			],
			"type":"VEC3"
		},
		{
			"bufferView":1,
			"componentType":5126,
			"count":648,
			"type":"VEC3"
		},
		{
			"bufferView":2,
			"componentType":5126,
			"count":648,
			"type":"VEC2"
		},
		{
			"bufferView":3,
			"componentType":5123,
			"count":972,
			"type":"SCALAR"
		},
		{
			"bufferView":4,
			"componentType":5126,
			"count":7070,
			"max":[
				-0.06589633226394653,
				3.412574291229248,
				16.24725341796875
			],
			"min":[
				-37.32754898071289,
				-2.482013702392578,
				-16.24725341796875
			],
			"type":"VEC3"
		},
		{
			"bufferView":5,
			"componentType":5126,
			"count":7070,
			"type":"VEC3"
		},
		{
			"bufferView":6,
			"componentType":5123,
			"count":10800,
			"type":"SCALAR"
		},
		{
			"bufferView":7,
			"componentType":5126,
			"count":7070,
			"max":[
				-0.06589633226394653,
				3.412574291229248,
				16.24725341796875
			],
			"min":[
				-37.32754898071289,
				-2.482013702392578,
				-16.24725341796875
			],
			"type":"VEC3"
		},
		{
			"bufferView":8,
			"componentType":5126,
			"count":7070,
			"type":"VEC3"
		},
		{
			"bufferView":9,
			"componentType":5126,
			"count":24,
			"max":[
				1,
				1,
				1
			],
			"min":[
				-1,
				-1,
				-1
			],
			"type":"VEC3"
		},
		{
			"bufferView":10,
			"componentType":5126,
			"count":24,
			"type":"VEC3"
		},
		{
			"bufferView":11,
			"componentType":5126,
			"count":24,
			"type":"VEC2"
		},
		{
			"bufferView":12,
			"componentType":5123,
			"count":36,
			"type":"SCALAR"
		},
		{
			"bufferView":13,
			"componentType":5126,
			"count":24,
			"max":[
				0.9999980926513672,
				0.9999995231628418,
				1.0000004768371582
			],
			"min":[
				-1.0000019073486328,
				-1.0000004768371582,
				-1.0000004768371582
			],
			"type":"VEC3"
		},
		{
			"bufferView":14,
			"componentType":5126,
			"count":24,
			"type":"VEC3"
		},
		{
			"bufferView":15,
			"componentType":5126,
			"count":24,
			"type":"VEC2"
		},
		{
			"bufferView":16,
			"componentType":5126,
			"count":24,
			"max":[
				1,
				1,
				1
			],
			"min":[
				-1,
				-1,
				-1
			],
			"type":"VEC3"
		},
		{
			"bufferView":17,
			"componentType":5126,
			"count":24,
			"type":"VEC3"
		},
		{
			"bufferView":18,
			"componentType":5126,
			"count":24,
			"type":"VEC2"
		},
		{
			"bufferView":19,
			"componentType":5126,
			"count":24,
			"max":[
				2,
				0,
				0
			],
			"min":[
				0,
				-2,
				-2
			],
			"type":"VEC3"
		},
		{
			"bufferView":20,
			"componentType":5126,
			"count":24,
			"type":"VEC3"
		},
		{
			"bufferView":21,
			"componentType":5126,
			"count":24,
			"type":"VEC2"
		},
		{
			"bufferView":22,
			"componentType":5126,
			"count":72,
			"max":[
				1,
				1,
				1
			],
			"min":[
				-1,
				-1,
				-1
			],
			"type":"VEC3"
		},
		{
			"bufferView":23,
			"componentType":5126,
			"count":72,
			"type":"VEC3"
		},
		{
			"bufferView":24,
			"componentType":5126,
			"count":72,
			"type":"VEC2"
		},
		{
			"bufferView":25,
			"componentType":5123,
			"count":138,
			"type":"SCALAR"
		},
		{
			"bufferView":26,
			"componentType":5126,
			"count":24,
			"max":[
				1,
				1,
				1
			],
			"min":[
				-1,
				-1,
				-1
			],
			"type":"VEC3"
		},
		{
			"bufferView":27,
			"componentType":5126,
			"count":24,
			"type":"VEC3"
		},
		{
			"bufferView":28,
			"componentType":5126,
			"count":24,
			"type":"VEC2"
		},
		{
			"bufferView":29,
			"componentType":5126,
			"count":24,
			"max":[
				1,
				1,
				1
			],
			"min":[
				-1,
				-1,
				-1
			],
			"type":"VEC3"
		},
		{
			"bufferView":30,
			"componentType":5126,
			"count":24,
			"type":"VEC3"
		},
		{
			"bufferView":31,
			"componentType":5126,
			"count":24,
			"type":"VEC2"
		},
		{
			"bufferView":32,
			"componentType":5126,
			"count":24,
			"max":[
				1,
				1,
				1
			],
			"min":[
				-1,
				-1,
				-1
			],
			"type":"VEC3"
		},
		{
			"bufferView":33,
			"componentType":5126,
			"count":24,
			"type":"VEC3"
		},
		{
			"bufferView":34,
			"componentType":5126,
			"count":24,
			"type":"VEC2"
		},
		{
			"bufferView":35,
			"componentType":5126,
			"count":24,
			"max":[
				1,
				1,
				1
			],
			"min":[
				-1,
				-1,
				-1
			],
			"type":"VEC3"
		},
		{
			"bufferView":36,
			"componentType":5126,
			"count":24,
			"type":"VEC3"
		},
		{
			"bufferView":37,
			"componentType":5126,
			"count":24,
			"type":"VEC2"
		}
	],
	"bufferViews":[
		{
			"buffer":0,
			"byteLength":7776,
			"byteOffset":0,
			"target":34962
		},
		{
			"buffer":0,
			"byteLength":7776,
			"byteOffset":7776,
			"target":34962
		},
		{
			"buffer":0,
			"byteLength":5184,
			"byteOffset":15552,
			"target":34962
		},
		{
			"buffer":0,
			"byteLength":1944,
			"byteOffset":20736,
			"target":34963
		},
		{
			"buffer":0,
			"byteLength":84840,
			"byteOffset":22680,
			"target":34962
		},
		{
			"buffer":0,
			"byteLength":84840,
			"byteOffset":107520,
			"target":34962
		},
		{
			"buffer":0,
			"byteLength":21600,
			"byteOffset":192360,
			"target":34963
		},
		{
			"buffer":0,
			"byteLength":84840,
			"byteOffset":213960,
			"target":34962
		},
		{
			"buffer":0,
			"byteLength":84840,
			"byteOffset":298800,
			"target":34962
		},
		{
			"buffer":0,
			"byteLength":288,
			"byteOffset":383640,
			"target":34962
		},
		{
			"buffer":0,
			"byteLength":288,
			"byteOffset":383928,
			"target":34962
		},
		{
			"buffer":0,
			"byteLength":192,
			"byteOffset":384216,
			"target":34962
		},
		{
			"buffer":0,
			"byteLength":72,
			"byteOffset":384408,
			"target":34963
		},
		{
			"buffer":0,
			"byteLength":288,
			"byteOffset":384480,
			"target":34962
		},
		{
			"buffer":0,
			"byteLength":288,
			"byteOffset":384768,
			"target":34962
		},
		{
			"buffer":0,
			"byteLength":192,
			"byteOffset":385056,
			"target":34962
		},
		{
			"buffer":0,
			"byteLength":288,
			"byteOffset":385248,
			"target":34962
		},
		{
			"buffer":0,
			"byteLength":288,
			"byteOffset":385536,
			"target":34962
		},
		{
			"buffer":0,
			"byteLength":192,
			"byteOffset":385824,
			"target":34962
		},
		{
			"buffer":0,
			"byteLength":288,
			"byteOffset":386016,
			"target":34962
		},
		{
			"buffer":0,
			"byteLength":288,
			"byteOffset":386304,
			"target":34962
		},
		{
			"buffer":0,
			"byteLength":192,
			"byteOffset":386592,
			"target":34962
		},
		{
			"buffer":0,
			"byteLength":864,
			"byteOffset":386784,
			"target":34962
		},
		{
			"buffer":0,
			"byteLength":864,
			"byteOffset":387648,
			"target":34962
		},
		{
			"buffer":0,
			"byteLength":576,
			"byteOffset":388512,
			"target":34962
		},
		{
			"buffer":0,
			"byteLength":276,
			"byteOffset":389088,
			"target":34963
		},
		{
			"buffer":0,
			"byteLength":288,
			"byteOffset":389364,
			"target":34962
		},
		{
			"buffer":0,
			"byteLength":288,
			"byteOffset":389652,
			"target":34962
		},
		{
			"buffer":0,
			"byteLength":192,
			"byteOffset":389940,
			"target":34962
		},
		{
			"buffer":0,
			"byteLength":288,
			"byteOffset":390132,
			"target":34962
		},
		{
			"buffer":0,
			"byteLength":288,
			"byteOffset":390420,
			"target":34962
		},
		{
			"buffer":0,
			"byteLength":192,
			"byteOffset":390708,
			"target":34962
		},
		{
			"buffer":0,
			"byteLength":288,
			"byteOffset":390900,
			"target":34962
		},
		{
			"buffer":0,
			"byteLength":288,
			"byteOffset":391188,
			"target":34962
		},
		{
			"buffer":0,
			"byteLength":192,
			"byteOffset":391476,
			"target":34962
		},
		{
			"buffer":0,
			"byteLength":288,
			"byteOffset":391668,
			"target":34962
		},
		{
			"buffer":0,
			"byteLength":288,
			"byteOffset":391956,
			"target":34962
		},
		{
			"buffer":0,
			"byteLength":192,
			"byteOffset":392244,
			"target":34962
		}
	],
	"buffers":[
		{
			"byteLength":392436,
			"uri":"scene.bin"
		}
	]
}
