{
	"asset":{
		"generator":"Khronos glTF Blender I/O v4.3.47",
		"version":"2.0"
	},
	"scene":0,
	"scenes":[
		{
			"extras":{
				"scatter5":{
					"operators":{
						"create_operators":{
							"f_sec_verts":199000,
							"f_sec_count_allow":0,
							"f_sec_verts_allow":0
						},
						"add_psy_density":{
							"f_distribution_density":0.20000000298023224,
							"selection_mode":1,
							"f_density_scale":2
						},
						"load_biome":{
							"progress_context":"",
							"progress_bar":0.0,
							"progress_label":"",
							"f_mask_assign_curve":{},
							"f_mask_paint_curve":{},
							"f_display_biome_allow":0
						}
					},
					"emitter":{
						"name":"S\u00e2n Qu\u1ed1c Ph\u00f2ng",
						"type":"Object"
					}
				}
			},
			"name":"Scene",
			"nodes":[
				0,
				1,
				2,
				3,
				4,
				5,
				6,
				7,
				8,
				9,
				10,
				11,
				12,
				13,
				14,
				15,
				16,
				17
			]
		}
	],
	"nodes":[
		{
			"extras":{
				"scatter5":{
					"estimated_square_area":648.0,
					"uuid_private":-887438825,
					"uuid_initialized":1,
					"particle_systems":[],
					"particle_groups":[],
					"particle_interface_items":[],
					"particle_interface_idx":0
				}
			},
			"mesh":0,
			"name":"S\u00e2n Qu\u1ed1c Ph\u00f2ng",
			"scale":[
				2,
				1,
				2
			],
			"translation":[
				-15.920230865478516,
				1.57400643825531,
				38.521728515625
			]
		},
		{
			"extras":{
				"scatter5":{}
			},
			"mesh":1,
			"name":"1",
			"rotation":[
				0.5,
				-0.5,
				-0.5,
				0.5000000596046448
			],
			"scale":[
				0.04696517065167427,
				0.05376427620649338,
				0.05376427620649338
			],
			"translation":[
				5.170000076293945,
				0.7099999785423279,
				-12.770000457763672
			]
		},
		{
			"extras":{
				"scatter5":{}
			},
			"mesh":2,
			"name":"1.001",
			"rotation":[
				0.5,
				-0.5,
				-0.5,
				0.5000000596046448
			],
			"scale":[
				0.04696517065167427,
				0.05376427620649338,
				0.05376427620649338
			],
			"translation":[
				0.1900005340576172,
				1.2999999523162842,
				-18.740001678466797
			]
		},
		{
			"extras":{
				"scatter5":{}
			},
			"mesh":3,
			"name":"1.002",
			"rotation":[
				0.5,
				-0.5,
				-0.5,
				0.5000000596046448
			],
			"scale":[
				0.04696517065167427,
				0.05376427620649338,
				0.05376427620649338
			],
			"translation":[
				0,
				1.2999999523162842,
				-13.65000057220459
			]
		},
		{
			"extras":{
				"scatter5":{}
			},
			"mesh":4,
			"name":"1.003",
			"rotation":[
				0.5,
				-0.5,
				-0.5,
				0.5000000596046448
			],
			"scale":[
				0.04696517065167427,
				0.05376427620649338,
				0.05376427620649338
			],
			"translation":[
				5.470000267028809,
				1.2999999523162842,
				-24.850000381469727
			]
		},
		{
			"extras":{
				"scatter5":{}
			},
			"mesh":5,
			"name":"Catwalk1",
			"rotation":[
				0,
				0.5446390509605408,
				0,
				0.838670551776886
			],
			"scale":[
				5,
				0.6499999761581421,
				1
			],
			"translation":[
				4.619999885559082,
				0.6499999761581421,
				-17.6200008392334
			]
		},
		{
			"extras":{
				"scatter5":{}
			},
			"mesh":6,
			"name":"Catwalk2",
			"rotation":[
				0,
				-0.5446390509605408,
				0,
				0.838670551776886
			],
			"scale":[
				5,
				0.6499999761581421,
				1
			],
			"translation":[
				-4.619999885559082,
				0.6499999761581421,
				-17.6200008392334
			]
		},
		{
			"extras":{
				"scatter5":{}
			},
			"mesh":7,
			"name":"S\u00e0n",
			"scale":[
				3.5,
				0.6499999761581421,
				1
			],
			"translation":[
				0,
				0.6499999761581421,
				-13.640000343322754
			]
		},
		{
			"extras":{
				"scatter5":{}
			},
			"mesh":8,
			"name":"S\u00e0n ",
			"rotation":[
				0,
				0.7071068286895752,
				0,
				0.7071068286895752
			],
			"scale":[
				2.820000171661377,
				0.6499999761581421,
				6.699999809265137
			],
			"translation":[
				0,
				0.6499999761581421,
				-24.969999313354492
			]
		},
		{
			"extras":{
				"scatter5":{}
			},
			"mesh":9,
			"name":"Cube.003",
			"rotation":[
				0,
				0.7071068286895752,
				0,
				0.7071068286895752
			],
			"scale":[
				3,
				0.6499999761581421,
				1
			],
			"translation":[
				-6.570000171661377,
				0.6499999761581421,
				-24.790000915527344
			]
		},
		{
			"extras":{
				"scatter5":{}
			},
			"mesh":10,
			"name":"Cube.004",
			"rotation":[
				0,
				0.7071068286895752,
				0,
				0.7071068286895752
			],
			"scale":[
				3,
				0.6499999761581421,
				1
			],
			"translation":[
				6.570000171661377,
				0.6499999761581421,
				-24.790000915527344
			]
		},
		{
			"extras":{
				"scatter5":{}
			},
			"mesh":11,
			"name":"Cylinder",
			"rotation":[
				0,
				-1,
				0,
				4.371138828673793e-08
			],
			"scale":[
				1,
				0.6499999761581421,
				1
			],
			"translation":[
				0,
				0.6499999761581421,
				-19.28999900817871
			]
		},
		{
			"extras":{
				"scatter5":{}
			},
			"mesh":12,
			"name":"Cube",
			"scale":[
				0.5874999761581421,
				0.6499999761581421,
				0.15000000596046448
			],
			"translation":[
				0,
				0.6499999761581421,
				-20.25
			]
		},
		{
			"extras":{
				"scatter5":{
					"estimated_square_area":20.0
				}
			},
			"mesh":13,
			"name":"Cube.005",
			"rotation":[
				0,
				0.5446390509605408,
				0,
				0.838670551776886
			],
			"scale":[
				0.875,
				0.6499999761581421,
				1.25
			],
			"translation":[
				4.992459774017334,
				0.6499999761581421,
				-12.937621116638184
			]
		},
		{
			"extras":{
				"scatter5":{
					"estimated_square_area":20.0
				}
			},
			"mesh":14,
			"name":"Cube.006",
			"rotation":[
				0,
				-0.5446390509605408,
				0,
				0.838670551776886
			],
			"scale":[
				0.875,
				0.6499999761581421,
				1.25
			],
			"translation":[
				-4.992456912994385,
				0.6499999761581421,
				-12.937621116638184
			]
		},
		{
			"extras":{
				"scatter5":{}
			},
			"mesh":15,
			"name":"LED main",
			"scale":[
				3.75,
				2.25,
				0.05000000074505806
			],
			"translation":[
				0,
				3.549999952316284,
				-27.5
			]
		},
		{
			"extras":{
				"scatter5":{}
			},
			"mesh":16,
			"name":"Cube.001",
			"scale":[
				1.25,
				2.25,
				0.05000000074505806
			],
			"translation":[
				6.090000152587891,
				3.549999952316284,
				-27.5
			]
		},
		{
			"extras":{
				"scatter5":{}
			},
			"mesh":17,
			"name":"Cube.002",
			"scale":[
				1.25,
				2.25,
				0.05000000074505806
			],
			"translation":[
				-6.090000152587891,
				3.549999952316284,
				-27.5
			]
		}
	],
	"materials":[
		{
			"doubleSided":true,
			"name":"Material.007",
			"pbrMetallicRoughness":{
				"baseColorFactor":[
					0.19806784391403198,
					0.45078638195991516,
					0.1412634402513504,
					1
				],
				"metallicFactor":0,
				"roughnessFactor":0.5
			}
		},
		{
			"doubleSided":true,
			"name":"Material",
			"pbrMetallicRoughness":{
				"baseColorFactor":[
					0.6795389652252197,
					0.019382284954190254,
					0.039546262472867966,
					1
				],
				"metallicFactor":0,
				"roughnessFactor":0.5
			}
		},
		{
			"doubleSided":true,
			"name":"Material.004",
			"pbrMetallicRoughness":{
				"baseColorFactor":[
					0.6795389652252197,
					0.019382284954190254,
					0.039546262472867966,
					1
				],
				"metallicFactor":0,
				"roughnessFactor":0.5
			}
		},
		{
			"doubleSided":true,
			"name":"Material.005",
			"pbrMetallicRoughness":{
				"baseColorFactor":[
					0.6795389652252197,
					0.019382284954190254,
					0.039546262472867966,
					1
				],
				"metallicFactor":0,
				"roughnessFactor":0.5
			}
		},
		{
			"doubleSided":true,
			"name":"Material.001",
			"pbrMetallicRoughness":{
				"baseColorFactor":[
					0.6795389652252197,
					0.019382284954190254,
					0.039546262472867966,
					1
				],
				"metallicFactor":0,
				"roughnessFactor":0.5
			}
		},
		{
			"doubleSided":true,
			"name":"Material.003",
			"pbrMetallicRoughness":{
				"baseColorFactor":[
					0.3964119553565979,
					0.3964119553565979,
					0.3964119553565979,
					1
				],
				"metallicFactor":0,
				"roughnessFactor":0.5
			}
		},
		{
			"doubleSided":true,
			"name":"Material.006",
			"pbrMetallicRoughness":{
				"baseColorFactor":[
					0.3964119553565979,
					0.3964119553565979,
					0.3964119553565979,
					1
				],
				"metallicFactor":0,
				"roughnessFactor":0.5
			}
		},
		{
			"doubleSided":true,
			"name":"Material.002",
			"pbrMetallicRoughness":{
				"baseColorFactor":[
					0,
					0,
					0,
					1
				],
				"metallicFactor":0,
				"roughnessFactor":0.5
			}
		}
	],
	"meshes":[
		{
			"name":"B\u1ec1 m\u1eb7t",
			"primitives":[
				{
					"attributes":{
						"POSITION":0,
						"NORMAL":1,
						"TEXCOORD_0":2
					},
					"indices":3,
					"material":0
				}
			]
		},
		{
			"name":"Plane.005",
			"primitives":[
				{
					"attributes":{
						"POSITION":4,
						"NORMAL":5
					},
					"indices":6,
					"material":1
				}
			]
		},
		{
			"name":"Plane.002",
			"primitives":[
				{
					"attributes":{
						"POSITION":7,
						"NORMAL":8
					},
					"indices":6,
					"material":2
				}
			]
		},
		{
			"name":"Plane.003",
			"primitives":[
				{
					"attributes":{
						"POSITION":9,
						"NORMAL":10
					},
					"indices":6,
					"material":3
				}
			]
		},
		{
			"name":"Plane.004",
			"primitives":[
				{
					"attributes":{
						"POSITION":11,
						"NORMAL":12
					},
					"indices":6,
					"material":4
				}
			]
		},
		{
			"name":"Cube.002",
			"primitives":[
				{
					"attributes":{
						"POSITION":13,
						"NORMAL":14,
						"TEXCOORD_0":15
					},
					"indices":16,
					"material":5
				}
			]
		},
		{
			"name":"Cube.003",
			"primitives":[
				{
					"attributes":{
						"POSITION":17,
						"NORMAL":18,
						"TEXCOORD_0":19
					},
					"indices":16,
					"material":5
				}
			]
		},
		{
			"name":"Cube.001",
			"primitives":[
				{
					"attributes":{
						"POSITION":20,
						"NORMAL":21,
						"TEXCOORD_0":22
					},
					"indices":16,
					"material":5
				}
			]
		},
		{
			"name":"Cube",
			"primitives":[
				{
					"attributes":{
						"POSITION":23,
						"NORMAL":24,
						"TEXCOORD_0":25
					},
					"indices":16,
					"material":5
				}
			]
		},
		{
			"name":"Cube.012",
			"primitives":[
				{
					"attributes":{
						"POSITION":26,
						"NORMAL":27,
						"TEXCOORD_0":28
					},
					"indices":16,
					"material":5
				}
			]
		},
		{
			"name":"Cube.013",
			"primitives":[
				{
					"attributes":{
						"POSITION":29,
						"NORMAL":30,
						"TEXCOORD_0":31
					},
					"indices":16,
					"material":6
				}
			]
		},
		{
			"name":"Cylinder",
			"primitives":[
				{
					"attributes":{
						"POSITION":32,
						"NORMAL":33,
						"TEXCOORD_0":34
					},
					"indices":35,
					"material":6
				}
			]
		},
		{
			"name":"Cube.005",
			"primitives":[
				{
					"attributes":{
						"POSITION":36,
						"NORMAL":37,
						"TEXCOORD_0":38
					},
					"indices":39,
					"material":6
				}
			]
		},
		{
			"name":"Cube.006",
			"primitives":[
				{
					"attributes":{
						"POSITION":40,
						"NORMAL":41,
						"TEXCOORD_0":42
					},
					"indices":43,
					"material":5
				}
			]
		},
		{
			"name":"Cube.007",
			"primitives":[
				{
					"attributes":{
						"POSITION":44,
						"NORMAL":45,
						"TEXCOORD_0":46
					},
					"indices":43,
					"material":5
				}
			]
		},
		{
			"name":"Cube.004",
			"primitives":[
				{
					"attributes":{
						"POSITION":47,
						"NORMAL":48,
						"TEXCOORD_0":49
					},
					"indices":16,
					"material":7
				}
			]
		},
		{
			"name":"Cube.010",
			"primitives":[
				{
					"attributes":{
						"POSITION":50,
						"NORMAL":51,
						"TEXCOORD_0":52
					},
					"indices":16,
					"material":7
				}
			]
		},
		{
			"name":"Cube.011",
			"primitives":[
				{
					"attributes":{
						"POSITION":53,
						"NORMAL":54,
						"TEXCOORD_0":55
					},
					"indices":16,
					"material":7
				}
			]
		}
	],
	"accessors":[
		{
			"bufferView":0,
			"componentType":5126,
			"count":648,
			"max":[
				16.960115432739258,
				-1.57400643825531,
				-1.2608642578125
			],
			"min":[
				-1.0398845672607422,
				-1.57400643825531,
				-37.2608642578125
			],
			"type":"VEC3"
		},
		{
			"bufferView":1,
			"componentType":5126,
			"count":648,
			"type":"VEC3"
		},
		{
			"bufferView":2,
			"componentType":5126,
			"count":648,
			"type":"VEC2"
		},
		{
			"bufferView":3,
			"componentType":5123,
			"count":972,
			"type":"SCALAR"
		},
		{
			"bufferView":4,
			"componentType":5126,
			"count":7070,
			"max":[
				-0.06589633226394653,
				3.412574291229248,
				16.24725341796875
			],
			"min":[
				-37.32754898071289,
				-2.482013702392578,
				-16.24725341796875
			],
			"type":"VEC3"
		},
		{
			"bufferView":5,
			"componentType":5126,
			"count":7070,
			"type":"VEC3"
		},
		{
			"bufferView":6,
			"componentType":5123,
			"count":10800,
			"type":"SCALAR"
		},
		{
			"bufferView":7,
			"componentType":5126,
			"count":7070,
			"max":[
				-0.06589633226394653,
				3.412574291229248,
				16.24725341796875
			],
			"min":[
				-37.32754898071289,
				-2.482013702392578,
				-16.24725341796875
			],
			"type":"VEC3"
		},
		{
			"bufferView":8,
			"componentType":5126,
			"count":7070,
			"type":"VEC3"
		},
		{
			"bufferView":9,
			"componentType":5126,
			"count":7070,
			"max":[
				-0.06589633226394653,
				3.412574291229248,
				16.24725341796875
			],
			"min":[
				-37.32754898071289,
				-2.482013702392578,
				-16.24725341796875
			],
			"type":"VEC3"
		},
		{
			"bufferView":10,
			"componentType":5126,
			"count":7070,
			"type":"VEC3"
		},
		{
			"bufferView":11,
			"componentType":5126,
			"count":7070,
			"max":[
				-0.06589633226394653,
				3.412574291229248,
				16.24725341796875
			],
			"min":[
				-37.32754898071289,
				-2.482013702392578,
				-16.24725341796875
			],
			"type":"VEC3"
		},
		{
			"bufferView":12,
			"componentType":5126,
			"count":7070,
			"type":"VEC3"
		},
		{
			"bufferView":13,
			"componentType":5126,
			"count":24,
			"max":[
				1,
				1,
				1
			],
			"min":[
				-1,
				-1,
				-1
			],
			"type":"VEC3"
		},
		{
			"bufferView":14,
			"componentType":5126,
			"count":24,
			"type":"VEC3"
		},
		{
			"bufferView":15,
			"componentType":5126,
			"count":24,
			"type":"VEC2"
		},
		{
			"bufferView":16,
			"componentType":5123,
			"count":36,
			"type":"SCALAR"
		},
		{
			"bufferView":17,
			"componentType":5126,
			"count":24,
			"max":[
				1,
				1,
				1
			],
			"min":[
				-1,
				-1,
				-1
			],
			"type":"VEC3"
		},
		{
			"bufferView":18,
			"componentType":5126,
			"count":24,
			"type":"VEC3"
		},
		{
			"bufferView":19,
			"componentType":5126,
			"count":24,
			"type":"VEC2"
		},
		{
			"bufferView":20,
			"componentType":5126,
			"count":24,
			"max":[
				1,
				1,
				1
			],
			"min":[
				-1,
				-1,
				-1
			],
			"type":"VEC3"
		},
		{
			"bufferView":21,
			"componentType":5126,
			"count":24,
			"type":"VEC3"
		},
		{
			"bufferView":22,
			"componentType":5126,
			"count":24,
			"type":"VEC2"
		},
		{
			"bufferView":23,
			"componentType":5126,
			"count":24,
			"max":[
				1,
				1,
				1
			],
			"min":[
				-1,
				-1,
				-1
			],
			"type":"VEC3"
		},
		{
			"bufferView":24,
			"componentType":5126,
			"count":24,
			"type":"VEC3"
		},
		{
			"bufferView":25,
			"componentType":5126,
			"count":24,
			"type":"VEC2"
		},
		{
			"bufferView":26,
			"componentType":5126,
			"count":24,
			"max":[
				1,
				1,
				1
			],
			"min":[
				-1,
				-1,
				-1
			],
			"type":"VEC3"
		},
		{
			"bufferView":27,
			"componentType":5126,
			"count":24,
			"type":"VEC3"
		},
		{
			"bufferView":28,
			"componentType":5126,
			"count":24,
			"type":"VEC2"
		},
		{
			"bufferView":29,
			"componentType":5126,
			"count":24,
			"max":[
				1,
				1,
				1
			],
			"min":[
				-1,
				-1,
				-1
			],
			"type":"VEC3"
		},
		{
			"bufferView":30,
			"componentType":5126,
			"count":24,
			"type":"VEC3"
		},
		{
			"bufferView":31,
			"componentType":5126,
			"count":24,
			"type":"VEC2"
		},
		{
			"bufferView":32,
			"componentType":5126,
			"count":30,
			"max":[
				0.9510565400123596,
				1,
				0.80901700258255
			],
			"min":[
				-0.9510565400123596,
				-1,
				-1
			],
			"type":"VEC3"
		},
		{
			"bufferView":33,
			"componentType":5126,
			"count":30,
			"type":"VEC3"
		},
		{
			"bufferView":34,
			"componentType":5126,
			"count":30,
			"type":"VEC2"
		},
		{
			"bufferView":35,
			"componentType":5123,
			"count":48,
			"type":"SCALAR"
		},
		{
			"bufferView":36,
			"componentType":5126,
			"count":120,
			"max":[
				1,
				1,
				1
			],
			"min":[
				-1,
				-1,
				-12.600000381469727
			],
			"type":"VEC3"
		},
		{
			"bufferView":37,
			"componentType":5126,
			"count":120,
			"type":"VEC3"
		},
		{
			"bufferView":38,
			"componentType":5126,
			"count":120,
			"type":"VEC2"
		},
		{
			"bufferView":39,
			"componentType":5123,
			"count":180,
			"type":"SCALAR"
		},
		{
			"bufferView":40,
			"componentType":5126,
			"count":74,
			"max":[
				1,
				1,
				1
			],
			"min":[
				-1,
				-1,
				-1
			],
			"type":"VEC3"
		},
		{
			"bufferView":41,
			"componentType":5126,
			"count":74,
			"type":"VEC3"
		},
		{
			"bufferView":42,
			"componentType":5126,
			"count":74,
			"type":"VEC2"
		},
		{
			"bufferView":43,
			"componentType":5123,
			"count":144,
			"type":"SCALAR"
		},
		{
			"bufferView":44,
			"componentType":5126,
			"count":74,
			"max":[
				1,
				1,
				1
			],
			"min":[
				-1,
				-1,
				-1
			],
			"type":"VEC3"
		},
		{
			"bufferView":45,
			"componentType":5126,
			"count":74,
			"type":"VEC3"
		},
		{
			"bufferView":46,
			"componentType":5126,
			"count":74,
			"type":"VEC2"
		},
		{
			"bufferView":47,
			"componentType":5126,
			"count":24,
			"max":[
				1,
				1,
				1
			],
			"min":[
				-1,
				-1,
				-1
			],
			"type":"VEC3"
		},
		{
			"bufferView":48,
			"componentType":5126,
			"count":24,
			"type":"VEC3"
		},
		{
			"bufferView":49,
			"componentType":5126,
			"count":24,
			"type":"VEC2"
		},
		{
			"bufferView":50,
			"componentType":5126,
			"count":24,
			"max":[
				1,
				1,
				1
			],
			"min":[
				-1,
				-1,
				-1
			],
			"type":"VEC3"
		},
		{
			"bufferView":51,
			"componentType":5126,
			"count":24,
			"type":"VEC3"
		},
		{
			"bufferView":52,
			"componentType":5126,
			"count":24,
			"type":"VEC2"
		},
		{
			"bufferView":53,
			"componentType":5126,
			"count":24,
			"max":[
				1,
				1,
				1
			],
			"min":[
				-1,
				-1,
				-1
			],
			"type":"VEC3"
		},
		{
			"bufferView":54,
			"componentType":5126,
			"count":24,
			"type":"VEC3"
		},
		{
			"bufferView":55,
			"componentType":5126,
			"count":24,
			"type":"VEC2"
		}
	],
	"bufferViews":[
		{
			"buffer":0,
			"byteLength":7776,
			"byteOffset":0,
			"target":34962
		},
		{
			"buffer":0,
			"byteLength":7776,
			"byteOffset":7776,
			"target":34962
		},
		{
			"buffer":0,
			"byteLength":5184,
			"byteOffset":15552,
			"target":34962
		},
		{
			"buffer":0,
			"byteLength":1944,
			"byteOffset":20736,
			"target":34963
		},
		{
			"buffer":0,
			"byteLength":84840,
			"byteOffset":22680,
			"target":34962
		},
		{
			"buffer":0,
			"byteLength":84840,
			"byteOffset":107520,
			"target":34962
		},
		{
			"buffer":0,
			"byteLength":21600,
			"byteOffset":192360,
			"target":34963
		},
		{
			"buffer":0,
			"byteLength":84840,
			"byteOffset":213960,
			"target":34962
		},
		{
			"buffer":0,
			"byteLength":84840,
			"byteOffset":298800,
			"target":34962
		},
		{
			"buffer":0,
			"byteLength":84840,
			"byteOffset":383640,
			"target":34962
		},
		{
			"buffer":0,
			"byteLength":84840,
			"byteOffset":468480,
			"target":34962
		},
		{
			"buffer":0,
			"byteLength":84840,
			"byteOffset":553320,
			"target":34962
		},
		{
			"buffer":0,
			"byteLength":84840,
			"byteOffset":638160,
			"target":34962
		},
		{
			"buffer":0,
			"byteLength":288,
			"byteOffset":723000,
			"target":34962
		},
		{
			"buffer":0,
			"byteLength":288,
			"byteOffset":723288,
			"target":34962
		},
		{
			"buffer":0,
			"byteLength":192,
			"byteOffset":723576,
			"target":34962
		},
		{
			"buffer":0,
			"byteLength":72,
			"byteOffset":723768,
			"target":34963
		},
		{
			"buffer":0,
			"byteLength":288,
			"byteOffset":723840,
			"target":34962
		},
		{
			"buffer":0,
			"byteLength":288,
			"byteOffset":724128,
			"target":34962
		},
		{
			"buffer":0,
			"byteLength":192,
			"byteOffset":724416,
			"target":34962
		},
		{
			"buffer":0,
			"byteLength":288,
			"byteOffset":724608,
			"target":34962
		},
		{
			"buffer":0,
			"byteLength":288,
			"byteOffset":724896,
			"target":34962
		},
		{
			"buffer":0,
			"byteLength":192,
			"byteOffset":725184,
			"target":34962
		},
		{
			"buffer":0,
			"byteLength":288,
			"byteOffset":725376,
			"target":34962
		},
		{
			"buffer":0,
			"byteLength":288,
			"byteOffset":725664,
			"target":34962
		},
		{
			"buffer":0,
			"byteLength":192,
			"byteOffset":725952,
			"target":34962
		},
		{
			"buffer":0,
			"byteLength":288,
			"byteOffset":726144,
			"target":34962
		},
		{
			"buffer":0,
			"byteLength":288,
			"byteOffset":726432,
			"target":34962
		},
		{
			"buffer":0,
			"byteLength":192,
			"byteOffset":726720,
			"target":34962
		},
		{
			"buffer":0,
			"byteLength":288,
			"byteOffset":726912,
			"target":34962
		},
		{
			"buffer":0,
			"byteLength":288,
			"byteOffset":727200,
			"target":34962
		},
		{
			"buffer":0,
			"byteLength":192,
			"byteOffset":727488,
			"target":34962
		},
		{
			"buffer":0,
			"byteLength":360,
			"byteOffset":727680,
			"target":34962
		},
		{
			"buffer":0,
			"byteLength":360,
			"byteOffset":728040,
			"target":34962
		},
		{
			"buffer":0,
			"byteLength":240,
			"byteOffset":728400,
			"target":34962
		},
		{
			"buffer":0,
			"byteLength":96,
			"byteOffset":728640,
			"target":34963
		},
		{
			"buffer":0,
			"byteLength":1440,
			"byteOffset":728736,
			"target":34962
		},
		{
			"buffer":0,
			"byteLength":1440,
			"byteOffset":730176,
			"target":34962
		},
		{
			"buffer":0,
			"byteLength":960,
			"byteOffset":731616,
			"target":34962
		},
		{
			"buffer":0,
			"byteLength":360,
			"byteOffset":732576,
			"target":34963
		},
		{
			"buffer":0,
			"byteLength":888,
			"byteOffset":732936,
			"target":34962
		},
		{
			"buffer":0,
			"byteLength":888,
			"byteOffset":733824,
			"target":34962
		},
		{
			"buffer":0,
			"byteLength":592,
			"byteOffset":734712,
			"target":34962
		},
		{
			"buffer":0,
			"byteLength":288,
			"byteOffset":735304,
			"target":34963
		},
		{
			"buffer":0,
			"byteLength":888,
			"byteOffset":735592,
			"target":34962
		},
		{
			"buffer":0,
			"byteLength":888,
			"byteOffset":736480,
			"target":34962
		},
		{
			"buffer":0,
			"byteLength":592,
			"byteOffset":737368,
			"target":34962
		},
		{
			"buffer":0,
			"byteLength":288,
			"byteOffset":737960,
			"target":34962
		},
		{
			"buffer":0,
			"byteLength":288,
			"byteOffset":738248,
			"target":34962
		},
		{
			"buffer":0,
			"byteLength":192,
			"byteOffset":738536,
			"target":34962
		},
		{
			"buffer":0,
			"byteLength":288,
			"byteOffset":738728,
			"target":34962
		},
		{
			"buffer":0,
			"byteLength":288,
			"byteOffset":739016,
			"target":34962
		},
		{
			"buffer":0,
			"byteLength":192,
			"byteOffset":739304,
			"target":34962
		},
		{
			"buffer":0,
			"byteLength":288,
			"byteOffset":739496,
			"target":34962
		},
		{
			"buffer":0,
			"byteLength":288,
			"byteOffset":739784,
			"target":34962
		},
		{
			"buffer":0,
			"byteLength":192,
			"byteOffset":740072,
			"target":34962
		}
	],
	"buffers":[
		{
			"byteLength":740264,
			"uri":"scene.bin"
		}
	]
}
