{
	"asset":{
		"generator":"Khronos glTF Blender I/O v4.3.47",
		"version":"2.0"
	},
	"scene":0,
	"scenes":[
		{
			"extras":{
				"scatter5":{
					"operators":{
						"create_operators":{
							"f_sec_verts":199000,
							"f_sec_count_allow":0,
							"f_sec_verts_allow":0
						},
						"add_psy_density":{
							"f_distribution_density":0.20000000298023224,
							"selection_mode":1,
							"f_density_scale":2
						},
						"load_biome":{
							"progress_context":"",
							"progress_bar":0.0,
							"progress_label":"",
							"f_mask_assign_curve":{},
							"f_mask_paint_curve":{},
							"f_display_biome_allow":0
						}
					},
					"emitter":{
						"name":"S\u00e2n Qu\u1ed1c Ph\u00f2ng",
						"type":"Object"
					}
				}
			},
			"name":"Scene",
			"nodes":[
				0,
				1,
				2,
				3,
				4,
				5,
				6,
				7,
				8,
				9,
				10,
				11,
				12,
				13,
				14,
				15,
				16,
				17
			]
		}
	],
	"nodes":[
		{
			"extras":{
				"scatter5":{
					"estimated_square_area":648.0,
					"uuid_private":-887438825,
					"uuid_initialized":1,
					"particle_systems":[],
					"particle_groups":[],
					"particle_interface_items":[],
					"particle_interface_idx":0
				}
			},
			"mesh":0,
			"name":"S\u00e2n Qu\u1ed1c Ph\u00f2ng",
			"scale":[
				2,
				1,
				2
			],
			"translation":[
				-15.920230865478516,
				1.57400643825531,
				38.521728515625
			]
		},
		{
			"extras":{
				"scatter5":{}
			},
			"mesh":1,
			"name":"1",
			"rotation":[
				0.5,
				-0.5,
				-0.5,
				0.5000000596046448
			],
			"scale":[
				0.04696517065167427,
				0.05376427620649338,
				0.05376427620649338
			],
			"translation":[
				5.170000076293945,
				0,
				-12.770000457763672
			]
		},
		{
			"extras":{
				"scatter5":{}
			},
			"mesh":2,
			"name":"1.001",
			"rotation":[
				0.5,
				-0.5,
				-0.5,
				0.5000000596046448
			],
			"scale":[
				0.04696517065167427,
				0.05376427620649338,
				0.05376427620649338
			],
			"translation":[
				5.470000267028809,
				0,
				-22.3700008392334
			]
		},
		{
			"extras":{
				"scatter5":{}
			},
			"mesh":3,
			"name":"1.002",
			"rotation":[
				0.5,
				-0.5,
				-0.5,
				0.5000000596046448
			],
			"scale":[
				0.04696517065167427,
				0.05376427620649338,
				0.05376427620649338
			],
			"translation":[
				0,
				1.2999999523162842,
				-17.690000534057617
			]
		},
		{
			"extras":{
				"scatter5":{}
			},
			"mesh":4,
			"name":"Catwalk1",
			"rotation":[
				0,
				0.5446390509605408,
				0,
				0.838670551776886
			],
			"scale":[
				10,
				0.6499999761581421,
				1.25
			],
			"translation":[
				0,
				0.6499999761581421,
				-17.65999984741211
			]
		},
		{
			"extras":{
				"scatter5":{}
			},
			"mesh":5,
			"name":"Catwalk2",
			"rotation":[
				0,
				-0.5446390509605408,
				0,
				0.838670551776886
			],
			"scale":[
				10,
				0.6499999761581421,
				1.25
			],
			"translation":[
				0,
				0.6499999761581421,
				-17.65999984741211
			]
		},
		{
			"extras":{
				"scatter5":{}
			},
			"mesh":6,
			"name":"S\u00e0n",
			"scale":[
				1,
				0.6499999761581421,
				1
			],
			"translation":[
				0,
				0.6499999761581421,
				-21.520000457763672
			]
		},
		{
			"extras":{
				"scatter5":{}
			},
			"mesh":7,
			"name":"S\u00e0n ",
			"rotation":[
				0,
				0.7071068286895752,
				0,
				0.7071068286895752
			],
			"scale":[
				2.820000171661377,
				0.6499999761581421,
				2.9000000953674316
			],
			"translation":[
				0,
				0.6499999761581421,
				-24.419998168945312
			]
		},
		{
			"extras":{
				"scatter5":{}
			},
			"mesh":8,
			"name":"Cube",
			"scale":[
				5.179999828338623,
				0.6499999761581421,
				2.990000009536743
			],
			"translation":[
				0,
				0.6499999761581421,
				-29.21000099182129
			]
		},
		{
			"extras":{
				"scatter5":{}
			},
			"mesh":9,
			"name":"Cube.003",
			"rotation":[
				0,
				0.7071068286895752,
				0,
				0.7071068286895752
			],
			"scale":[
				3,
				0.6499999761581421,
				1
			],
			"translation":[
				6.179999351501465,
				0.6499999761581421,
				-29.209999084472656
			]
		},
		{
			"extras":{
				"scatter5":{}
			},
			"mesh":10,
			"name":"Cube.004",
			"rotation":[
				0,
				0.7071068286895752,
				0,
				0.7071068286895752
			],
			"scale":[
				3,
				0.6499999761581421,
				1
			],
			"translation":[
				-6.179999828338623,
				0.6499999761581421,
				-29.209999084472656
			]
		},
		{
			"extras":{
				"scatter5":{
					"estimated_square_area":2.2934255599975586
				}
			},
			"mesh":11,
			"name":"C\u00e1nh hoa sen",
			"rotation":[
				0.024501660838723183,
				-0.21504832804203033,
				-0.11051983386278152,
				0.9700202345848083
			],
			"translation":[
				-4.210000038146973,
				0,
				-23
			]
		},
		{
			"extras":{
				"scatter5":{
					"estimated_square_area":2.2934255599975586
				}
			},
			"mesh":12,
			"name":"C\u00e1nh hoa sen th\u1ea5p ",
			"rotation":[
				-0.15792731940746307,
				0.30337557196617126,
				-0.43390175700187683,
				0.8335175514221191
			],
			"scale":[
				0.8000000715255737,
				0.800000011920929,
				1
			],
			"translation":[
				4.130000114440918,
				0,
				-22.53999900817871
			]
		},
		{
			"extras":{
				"scatter5":{
					"estimated_square_area":2.2934255599975586
				}
			},
			"mesh":13,
			"name":"C\u00e1nh hoa sen.001",
			"rotation":[
				-0.1347368210554123,
				0.16938741505146027,
				-0.6077585816383362,
				0.7640572190284729
			],
			"translation":[
				4.210000038146973,
				0,
				-23
			]
		},
		{
			"extras":{
				"scatter5":{
					"estimated_square_area":2.2934255599975586
				}
			},
			"mesh":14,
			"name":"C\u00e1nh hoa sen th\u1ea5p",
			"rotation":[
				0.10284743458032608,
				-0.32619041204452515,
				-0.282571017742157,
				0.8962008357048035
			],
			"scale":[
				0.800000011920929,
				0.800000011920929,
				1
			],
			"translation":[
				-4.12999963760376,
				0,
				-22.53999900817871
			]
		},
		{
			"extras":{
				"scatter5":{}
			},
			"mesh":15,
			"name":"LED main",
			"scale":[
				5,
				2.5,
				0.05000000074505806
			],
			"translation":[
				0,
				3.799999952316284,
				-28.44999885559082
			]
		},
		{
			"extras":{
				"scatter5":{}
			},
			"mesh":16,
			"name":"Cube.001",
			"rotation":[
				0,
				0.30901703238487244,
				0,
				0.9510565996170044
			],
			"scale":[
				2,
				3.1500000953674316,
				0.05000000074505806
			],
			"translation":[
				6.090000152587891,
				3.1500000953674316,
				-24.549999237060547
			]
		},
		{
			"extras":{
				"scatter5":{}
			},
			"mesh":17,
			"name":"Cube.002",
			"rotation":[
				0,
				-0.30901703238487244,
				0,
				0.9510565996170044
			],
			"scale":[
				2,
				3.1500000953674316,
				0.05000000074505806
			],
			"translation":[
				-6.090000152587891,
				3.1500000953674316,
				-24.549999237060547
			]
		}
	],
	"materials":[
		{
			"doubleSided":true,
			"name":"Material.007",
			"pbrMetallicRoughness":{
				"baseColorFactor":[
					0.19806784391403198,
					0.45078638195991516,
					0.1412634402513504,
					1
				],
				"metallicFactor":0,
				"roughnessFactor":0.5
			}
		},
		{
			"doubleSided":true,
			"name":"Material",
			"pbrMetallicRoughness":{
				"baseColorFactor":[
					0.6795389652252197,
					0.019382284954190254,
					0.039546262472867966,
					1
				],
				"metallicFactor":0,
				"roughnessFactor":0.5
			}
		},
		{
			"doubleSided":true,
			"name":"Material.004",
			"pbrMetallicRoughness":{
				"baseColorFactor":[
					0.6795389652252197,
					0.019382284954190254,
					0.039546262472867966,
					1
				],
				"metallicFactor":0,
				"roughnessFactor":0.5
			}
		},
		{
			"doubleSided":true,
			"name":"Material.005",
			"pbrMetallicRoughness":{
				"baseColorFactor":[
					0.6795389652252197,
					0.019382284954190254,
					0.039546262472867966,
					1
				],
				"metallicFactor":0,
				"roughnessFactor":0.5
			}
		},
		{
			"doubleSided":true,
			"name":"Material.003",
			"pbrMetallicRoughness":{
				"baseColorFactor":[
					0.3964119553565979,
					0.3964119553565979,
					0.3964119553565979,
					1
				],
				"metallicFactor":0,
				"roughnessFactor":0.5
			}
		},
		{
			"doubleSided":true,
			"name":"Material.006",
			"pbrMetallicRoughness":{
				"baseColorFactor":[
					0.3964119553565979,
					0.3964119553565979,
					0.3964119553565979,
					1
				],
				"metallicFactor":0,
				"roughnessFactor":0.5
			}
		},
		{
			"doubleSided":true,
			"name":"H\u1ed3ng Sen",
			"pbrMetallicRoughness":{
				"baseColorFactor":[
					0.9046557545661926,
					0.5209958553314209,
					0.5711252093315125,
					1
				],
				"metallicFactor":0,
				"roughnessFactor":0.5
			}
		},
		{
			"doubleSided":true,
			"name":"Material.002",
			"pbrMetallicRoughness":{
				"baseColorFactor":[
					0,
					0,
					0,
					1
				],
				"metallicFactor":0,
				"roughnessFactor":0.5
			}
		}
	],
	"meshes":[
		{
			"name":"B\u1ec1 m\u1eb7t",
			"primitives":[
				{
					"attributes":{
						"POSITION":0,
						"NORMAL":1,
						"TEXCOORD_0":2
					},
					"indices":3,
					"material":0
				}
			]
		},
		{
			"name":"Plane.005",
			"primitives":[
				{
					"attributes":{
						"POSITION":4,
						"NORMAL":5
					},
					"indices":6,
					"material":1
				}
			]
		},
		{
			"name":"Plane.002",
			"primitives":[
				{
					"attributes":{
						"POSITION":7,
						"NORMAL":8
					},
					"indices":6,
					"material":2
				}
			]
		},
		{
			"name":"Plane.003",
			"primitives":[
				{
					"attributes":{
						"POSITION":9,
						"NORMAL":10
					},
					"indices":6,
					"material":3
				}
			]
		},
		{
			"name":"Cube.002",
			"primitives":[
				{
					"attributes":{
						"POSITION":11,
						"NORMAL":12,
						"TEXCOORD_0":13
					},
					"indices":14,
					"material":4
				}
			]
		},
		{
			"name":"Cube.003",
			"primitives":[
				{
					"attributes":{
						"POSITION":15,
						"NORMAL":16,
						"TEXCOORD_0":17
					},
					"indices":14,
					"material":4
				}
			]
		},
		{
			"name":"Cube.001",
			"primitives":[
				{
					"attributes":{
						"POSITION":18,
						"NORMAL":19,
						"TEXCOORD_0":20
					},
					"indices":14,
					"material":4
				}
			]
		},
		{
			"name":"Cube",
			"primitives":[
				{
					"attributes":{
						"POSITION":21,
						"NORMAL":22,
						"TEXCOORD_0":23
					},
					"indices":14,
					"material":4
				}
			]
		},
		{
			"name":"Cube.009",
			"primitives":[
				{
					"attributes":{
						"POSITION":24,
						"NORMAL":25,
						"TEXCOORD_0":26
					},
					"indices":14,
					"material":4
				}
			]
		},
		{
			"name":"Cube.012",
			"primitives":[
				{
					"attributes":{
						"POSITION":27,
						"NORMAL":28,
						"TEXCOORD_0":29
					},
					"indices":14,
					"material":4
				}
			]
		},
		{
			"name":"Cube.013",
			"primitives":[
				{
					"attributes":{
						"POSITION":30,
						"NORMAL":31,
						"TEXCOORD_0":32
					},
					"indices":14,
					"material":5
				}
			]
		},
		{
			"name":"Cube.006",
			"primitives":[
				{
					"attributes":{
						"POSITION":33,
						"NORMAL":34,
						"TEXCOORD_0":35
					},
					"indices":36,
					"material":6
				}
			]
		},
		{
			"name":"Cube.005",
			"primitives":[
				{
					"attributes":{
						"POSITION":37,
						"NORMAL":38,
						"TEXCOORD_0":39
					},
					"indices":36,
					"material":6
				}
			]
		},
		{
			"name":"Cube.007",
			"primitives":[
				{
					"attributes":{
						"POSITION":40,
						"NORMAL":41,
						"TEXCOORD_0":42
					},
					"indices":36,
					"material":6
				}
			]
		},
		{
			"name":"Cube.008",
			"primitives":[
				{
					"attributes":{
						"POSITION":43,
						"NORMAL":44,
						"TEXCOORD_0":45
					},
					"indices":36,
					"material":6
				}
			]
		},
		{
			"name":"Cube.004",
			"primitives":[
				{
					"attributes":{
						"POSITION":46,
						"NORMAL":47,
						"TEXCOORD_0":48
					},
					"indices":14,
					"material":7
				}
			]
		},
		{
			"name":"Cube.010",
			"primitives":[
				{
					"attributes":{
						"POSITION":49,
						"NORMAL":50,
						"TEXCOORD_0":51
					},
					"indices":14,
					"material":7
				}
			]
		},
		{
			"name":"Cube.011",
			"primitives":[
				{
					"attributes":{
						"POSITION":52,
						"NORMAL":53,
						"TEXCOORD_0":54
					},
					"indices":14,
					"material":7
				}
			]
		}
	],
	"accessors":[
		{
			"bufferView":0,
			"componentType":5126,
			"count":648,
			"max":[
				16.960115432739258,
				-1.57400643825531,
				-1.2608642578125
			],
			"min":[
				-1.0398845672607422,
				-1.57400643825531,
				-37.2608642578125
			],
			"type":"VEC3"
		},
		{
			"bufferView":1,
			"componentType":5126,
			"count":648,
			"type":"VEC3"
		},
		{
			"bufferView":2,
			"componentType":5126,
			"count":648,
			"type":"VEC2"
		},
		{
			"bufferView":3,
			"componentType":5123,
			"count":972,
			"type":"SCALAR"
		},
		{
			"bufferView":4,
			"componentType":5126,
			"count":7070,
			"max":[
				-0.06589633226394653,
				3.412574291229248,
				16.24725341796875
			],
			"min":[
				-37.32754898071289,
				-2.482013702392578,
				-16.24725341796875
			],
			"type":"VEC3"
		},
		{
			"bufferView":5,
			"componentType":5126,
			"count":7070,
			"type":"VEC3"
		},
		{
			"bufferView":6,
			"componentType":5123,
			"count":10800,
			"type":"SCALAR"
		},
		{
			"bufferView":7,
			"componentType":5126,
			"count":7070,
			"max":[
				-0.06589633226394653,
				3.412574291229248,
				16.24725341796875
			],
			"min":[
				-37.32754898071289,
				-2.482013702392578,
				-16.24725341796875
			],
			"type":"VEC3"
		},
		{
			"bufferView":8,
			"componentType":5126,
			"count":7070,
			"type":"VEC3"
		},
		{
			"bufferView":9,
			"componentType":5126,
			"count":7070,
			"max":[
				-0.06589633226394653,
				3.412574291229248,
				16.24725341796875
			],
			"min":[
				-37.32754898071289,
				-2.482013702392578,
				-16.24725341796875
			],
			"type":"VEC3"
		},
		{
			"bufferView":10,
			"componentType":5126,
			"count":7070,
			"type":"VEC3"
		},
		{
			"bufferView":11,
			"componentType":5126,
			"count":24,
			"max":[
				1,
				1,
				1
			],
			"min":[
				-1,
				-1,
				-1
			],
			"type":"VEC3"
		},
		{
			"bufferView":12,
			"componentType":5126,
			"count":24,
			"type":"VEC3"
		},
		{
			"bufferView":13,
			"componentType":5126,
			"count":24,
			"type":"VEC2"
		},
		{
			"bufferView":14,
			"componentType":5123,
			"count":36,
			"type":"SCALAR"
		},
		{
			"bufferView":15,
			"componentType":5126,
			"count":24,
			"max":[
				1,
				1,
				1
			],
			"min":[
				-1,
				-1,
				-1
			],
			"type":"VEC3"
		},
		{
			"bufferView":16,
			"componentType":5126,
			"count":24,
			"type":"VEC3"
		},
		{
			"bufferView":17,
			"componentType":5126,
			"count":24,
			"type":"VEC2"
		},
		{
			"bufferView":18,
			"componentType":5126,
			"count":24,
			"max":[
				1,
				1,
				1
			],
			"min":[
				-1,
				-1,
				-1
			],
			"type":"VEC3"
		},
		{
			"bufferView":19,
			"componentType":5126,
			"count":24,
			"type":"VEC3"
		},
		{
			"bufferView":20,
			"componentType":5126,
			"count":24,
			"type":"VEC2"
		},
		{
			"bufferView":21,
			"componentType":5126,
			"count":24,
			"max":[
				1,
				1,
				1
			],
			"min":[
				-1,
				-1,
				-1
			],
			"type":"VEC3"
		},
		{
			"bufferView":22,
			"componentType":5126,
			"count":24,
			"type":"VEC3"
		},
		{
			"bufferView":23,
			"componentType":5126,
			"count":24,
			"type":"VEC2"
		},
		{
			"bufferView":24,
			"componentType":5126,
			"count":24,
			"max":[
				1,
				1,
				1
			],
			"min":[
				-1,
				-1,
				-1
			],
			"type":"VEC3"
		},
		{
			"bufferView":25,
			"componentType":5126,
			"count":24,
			"type":"VEC3"
		},
		{
			"bufferView":26,
			"componentType":5126,
			"count":24,
			"type":"VEC2"
		},
		{
			"bufferView":27,
			"componentType":5126,
			"count":24,
			"max":[
				1,
				1,
				1
			],
			"min":[
				-1,
				-1,
				-1
			],
			"type":"VEC3"
		},
		{
			"bufferView":28,
			"componentType":5126,
			"count":24,
			"type":"VEC3"
		},
		{
			"bufferView":29,
			"componentType":5126,
			"count":24,
			"type":"VEC2"
		},
		{
			"bufferView":30,
			"componentType":5126,
			"count":24,
			"max":[
				1,
				1,
				1
			],
			"min":[
				-1,
				-1,
				-1
			],
			"type":"VEC3"
		},
		{
			"bufferView":31,
			"componentType":5126,
			"count":24,
			"type":"VEC3"
		},
		{
			"bufferView":32,
			"componentType":5126,
			"count":24,
			"type":"VEC2"
		},
		{
			"bufferView":33,
			"componentType":5126,
			"count":144,
			"max":[
				0,
				2,
				0
			],
			"min":[
				-2,
				0,
				-0.07000000029802322
			],
			"type":"VEC3"
		},
		{
			"bufferView":34,
			"componentType":5126,
			"count":144,
			"type":"VEC3"
		},
		{
			"bufferView":35,
			"componentType":5126,
			"count":144,
			"type":"VEC2"
		},
		{
			"bufferView":36,
			"componentType":5123,
			"count":276,
			"type":"SCALAR"
		},
		{
			"bufferView":37,
			"componentType":5126,
			"count":144,
			"max":[
				0,
				2,
				0
			],
			"min":[
				-2,
				0,
				-0.07000000029802322
			],
			"type":"VEC3"
		},
		{
			"bufferView":38,
			"componentType":5126,
			"count":144,
			"type":"VEC3"
		},
		{
			"bufferView":39,
			"componentType":5126,
			"count":144,
			"type":"VEC2"
		},
		{
			"bufferView":40,
			"componentType":5126,
			"count":144,
			"max":[
				0,
				2,
				0
			],
			"min":[
				-2,
				0,
				-0.07000000029802322
			],
			"type":"VEC3"
		},
		{
			"bufferView":41,
			"componentType":5126,
			"count":144,
			"type":"VEC3"
		},
		{
			"bufferView":42,
			"componentType":5126,
			"count":144,
			"type":"VEC2"
		},
		{
			"bufferView":43,
			"componentType":5126,
			"count":144,
			"max":[
				0,
				2,
				0
			],
			"min":[
				-2,
				0,
				-0.07000000029802322
			],
			"type":"VEC3"
		},
		{
			"bufferView":44,
			"componentType":5126,
			"count":144,
			"type":"VEC3"
		},
		{
			"bufferView":45,
			"componentType":5126,
			"count":144,
			"type":"VEC2"
		},
		{
			"bufferView":46,
			"componentType":5126,
			"count":24,
			"max":[
				1,
				1,
				1
			],
			"min":[
				-1,
				-1,
				-1
			],
			"type":"VEC3"
		},
		{
			"bufferView":47,
			"componentType":5126,
			"count":24,
			"type":"VEC3"
		},
		{
			"bufferView":48,
			"componentType":5126,
			"count":24,
			"type":"VEC2"
		},
		{
			"bufferView":49,
			"componentType":5126,
			"count":24,
			"max":[
				1,
				1,
				1
			],
			"min":[
				-1,
				-1,
				-1
			],
			"type":"VEC3"
		},
		{
			"bufferView":50,
			"componentType":5126,
			"count":24,
			"type":"VEC3"
		},
		{
			"bufferView":51,
			"componentType":5126,
			"count":24,
			"type":"VEC2"
		},
		{
			"bufferView":52,
			"componentType":5126,
			"count":24,
			"max":[
				1,
				1,
				1
			],
			"min":[
				-1,
				-1,
				-1
			],
			"type":"VEC3"
		},
		{
			"bufferView":53,
			"componentType":5126,
			"count":24,
			"type":"VEC3"
		},
		{
			"bufferView":54,
			"componentType":5126,
			"count":24,
			"type":"VEC2"
		}
	],
	"bufferViews":[
		{
			"buffer":0,
			"byteLength":7776,
			"byteOffset":0,
			"target":34962
		},
		{
			"buffer":0,
			"byteLength":7776,
			"byteOffset":7776,
			"target":34962
		},
		{
			"buffer":0,
			"byteLength":5184,
			"byteOffset":15552,
			"target":34962
		},
		{
			"buffer":0,
			"byteLength":1944,
			"byteOffset":20736,
			"target":34963
		},
		{
			"buffer":0,
			"byteLength":84840,
			"byteOffset":22680,
			"target":34962
		},
		{
			"buffer":0,
			"byteLength":84840,
			"byteOffset":107520,
			"target":34962
		},
		{
			"buffer":0,
			"byteLength":21600,
			"byteOffset":192360,
			"target":34963
		},
		{
			"buffer":0,
			"byteLength":84840,
			"byteOffset":213960,
			"target":34962
		},
		{
			"buffer":0,
			"byteLength":84840,
			"byteOffset":298800,
			"target":34962
		},
		{
			"buffer":0,
			"byteLength":84840,
			"byteOffset":383640,
			"target":34962
		},
		{
			"buffer":0,
			"byteLength":84840,
			"byteOffset":468480,
			"target":34962
		},
		{
			"buffer":0,
			"byteLength":288,
			"byteOffset":553320,
			"target":34962
		},
		{
			"buffer":0,
			"byteLength":288,
			"byteOffset":553608,
			"target":34962
		},
		{
			"buffer":0,
			"byteLength":192,
			"byteOffset":553896,
			"target":34962
		},
		{
			"buffer":0,
			"byteLength":72,
			"byteOffset":554088,
			"target":34963
		},
		{
			"buffer":0,
			"byteLength":288,
			"byteOffset":554160,
			"target":34962
		},
		{
			"buffer":0,
			"byteLength":288,
			"byteOffset":554448,
			"target":34962
		},
		{
			"buffer":0,
			"byteLength":192,
			"byteOffset":554736,
			"target":34962
		},
		{
			"buffer":0,
			"byteLength":288,
			"byteOffset":554928,
			"target":34962
		},
		{
			"buffer":0,
			"byteLength":288,
			"byteOffset":555216,
			"target":34962
		},
		{
			"buffer":0,
			"byteLength":192,
			"byteOffset":555504,
			"target":34962
		},
		{
			"buffer":0,
			"byteLength":288,
			"byteOffset":555696,
			"target":34962
		},
		{
			"buffer":0,
			"byteLength":288,
			"byteOffset":555984,
			"target":34962
		},
		{
			"buffer":0,
			"byteLength":192,
			"byteOffset":556272,
			"target":34962
		},
		{
			"buffer":0,
			"byteLength":288,
			"byteOffset":556464,
			"target":34962
		},
		{
			"buffer":0,
			"byteLength":288,
			"byteOffset":556752,
			"target":34962
		},
		{
			"buffer":0,
			"byteLength":192,
			"byteOffset":557040,
			"target":34962
		},
		{
			"buffer":0,
			"byteLength":288,
			"byteOffset":557232,
			"target":34962
		},
		{
			"buffer":0,
			"byteLength":288,
			"byteOffset":557520,
			"target":34962
		},
		{
			"buffer":0,
			"byteLength":192,
			"byteOffset":557808,
			"target":34962
		},
		{
			"buffer":0,
			"byteLength":288,
			"byteOffset":558000,
			"target":34962
		},
		{
			"buffer":0,
			"byteLength":288,
			"byteOffset":558288,
			"target":34962
		},
		{
			"buffer":0,
			"byteLength":192,
			"byteOffset":558576,
			"target":34962
		},
		{
			"buffer":0,
			"byteLength":1728,
			"byteOffset":558768,
			"target":34962
		},
		{
			"buffer":0,
			"byteLength":1728,
			"byteOffset":560496,
			"target":34962
		},
		{
			"buffer":0,
			"byteLength":1152,
			"byteOffset":562224,
			"target":34962
		},
		{
			"buffer":0,
			"byteLength":552,
			"byteOffset":563376,
			"target":34963
		},
		{
			"buffer":0,
			"byteLength":1728,
			"byteOffset":563928,
			"target":34962
		},
		{
			"buffer":0,
			"byteLength":1728,
			"byteOffset":565656,
			"target":34962
		},
		{
			"buffer":0,
			"byteLength":1152,
			"byteOffset":567384,
			"target":34962
		},
		{
			"buffer":0,
			"byteLength":1728,
			"byteOffset":568536,
			"target":34962
		},
		{
			"buffer":0,
			"byteLength":1728,
			"byteOffset":570264,
			"target":34962
		},
		{
			"buffer":0,
			"byteLength":1152,
			"byteOffset":571992,
			"target":34962
		},
		{
			"buffer":0,
			"byteLength":1728,
			"byteOffset":573144,
			"target":34962
		},
		{
			"buffer":0,
			"byteLength":1728,
			"byteOffset":574872,
			"target":34962
		},
		{
			"buffer":0,
			"byteLength":1152,
			"byteOffset":576600,
			"target":34962
		},
		{
			"buffer":0,
			"byteLength":288,
			"byteOffset":577752,
			"target":34962
		},
		{
			"buffer":0,
			"byteLength":288,
			"byteOffset":578040,
			"target":34962
		},
		{
			"buffer":0,
			"byteLength":192,
			"byteOffset":578328,
			"target":34962
		},
		{
			"buffer":0,
			"byteLength":288,
			"byteOffset":578520,
			"target":34962
		},
		{
			"buffer":0,
			"byteLength":288,
			"byteOffset":578808,
			"target":34962
		},
		{
			"buffer":0,
			"byteLength":192,
			"byteOffset":579096,
			"target":34962
		},
		{
			"buffer":0,
			"byteLength":288,
			"byteOffset":579288,
			"target":34962
		},
		{
			"buffer":0,
			"byteLength":288,
			"byteOffset":579576,
			"target":34962
		},
		{
			"buffer":0,
			"byteLength":192,
			"byteOffset":579864,
			"target":34962
		}
	],
	"buffers":[
		{
			"byteLength":580056,
			"uri":"scene.bin"
		}
	]
}
